<svg width="16" height="16" xmlns="http://www.w3.org/2000/svg">
 <title>blind-reviews_icon-purple</title>
 <defs>
  <linearGradient id="linearGradient-1" y2="0%" x2="50%" y1="100%" x1="50%">
   <stop offset="0%" stop-color="#3023AE"/>
   <stop offset="100%" stop-color="#C86DD7"/>
  </linearGradient>
 </defs>
 <g>
  <title>Layer 1</title>
  <g fill-rule="evenodd" fill="none" id="Symbols">
   <g fill="url(#linearGradient-1)" id="blind-reviews_icon-purple">
    <path id="icon-blind-eye-purple" d="m6.47745,10.38032c0.44076,0.27376 0.96286,0.43218 1.52255,0.43218c1.57796,0 2.85714,-1.2592 2.85714,-2.8125c0,-0.5668 -0.17032,-1.09444 -0.46334,-1.53603l-3.91635,3.91635zm-0.92601,-0.93015l3.88304,-3.883039c-0.421579,-0.24138 -0.91163,-0.37963 -1.43448,-0.37963c-1.57796,0 -2.85714,1.2592 -2.85714,2.8125c0,0.53051 0.14921,1.02672 0.40858,1.45017zm5.25167,-4.25911c0.73872,0.71441 1.19689,1.70901 1.19689,2.80894c0,1.09993 -0.45817,2.09453 -1.19689,2.80894c1.291699,-0.540501 2.52761,-1.47167 3.7147,-2.80894c-1.18709,-1.33727 -2.423,-2.26844 -3.7147,-2.80894zm-5.60622,5.61788c-0.73872,-0.71441 -1.19689,-1.70901 -1.19689,-2.80894c0,-1.09993 0.45817,-2.09453 1.19689,-2.80894c-1.2917,0.5405 -2.52761,1.47167 -3.7147,2.80894c1.18709,1.33727 2.423,2.268439 3.7147,2.80894zm2.80311,1.69106c-2.94552,0 -5.61219,-1.5 -8,-4.5c2.38781,-3 5.05448,-4.5 8,-4.5c2.94552,0 5.61219,1.5 8,4.5c-2.38781,3 -5.05448,4.5 -8,4.5z"/>
   </g>
  </g>
 </g>
</svg>
