<?xml version="1.0" encoding="UTF-8"?>
<svg width="16px" height="16px" viewBox="0 0 16 16" version="1.1" xmlns="http://www.w3.org/2000/svg" xmlns:xlink="http://www.w3.org/1999/xlink">
    <!-- Generator: Sketch 48.2 (47327) - http://www.bohemiancoding.com/sketch -->
    <title>blind-reviews_icon-squared</title>
    <desc>Created with Sketch.</desc>
    <defs>
        <linearGradient x1="50%" y1="100%" x2="50%" y2="0%" id="linearGradient-1">
            <stop stop-color="#3023AE" offset="0%"></stop>
            <stop stop-color="#C86DD7" offset="100%"></stop>
        </linearGradient>
    </defs>
    <g id="Symbols" stroke="none" stroke-width="1" fill="none" fill-rule="evenodd">
        <g id="blind-reviews_icon-squared">
            <path d="M1.60242825,0 L14.3975718,1.29480038e-16 C14.954771,2.71242037e-17 15.1568249,0.058016007 15.3605286,0.16695794 C15.5642323,0.275899873 15.7241001,0.435767732 15.8330421,0.639471435 C15.941984,0.843175139 16,1.04522904 16,1.60242825 L16,14.3975718 C16,14.954771 15.941984,15.1568249 15.8330421,15.3605286 C15.7241001,15.5642323 15.5642323,15.7241001 15.3605286,15.8330421 C15.1568249,15.941984 14.954771,16 14.3975718,16 L1.60242825,16 C1.04522904,16 0.843175139,15.941984 0.639471435,15.8330421 C0.435767732,15.7241001 0.275899873,15.5642323 0.16695794,15.3605286 C0.058016007,15.1568249 6.82372232e-17,14.954771 0,14.3975718 L8.63200256e-17,1.60242825 C1.80828025e-17,1.04522904 0.058016007,0.843175139 0.16695794,0.639471435 C0.275899873,0.435767732 0.435767732,0.275899873 0.639471435,0.16695794 C0.843175139,0.058016007 1.04522904,1.02355835e-16 1.60242825,0 Z" id="gradient" fill="url(#linearGradient-1)"></path>
            <g id="blind-reviews_icon-white" transform="translate(1.000000, 4.000000)" fill="#FFFFFF">
                <path d="M5.66776482,6.02027968 C6.05343447,6.25982427 6.51027287,6.3984375 7,6.3984375 C8.38071187,6.3984375 9.5,5.29663825 9.5,3.9375 C9.5,3.4415486 9.35096342,2.97986266 9.09457193,2.59347257 L5.66776482,6.02027968 Z M4.8575126,5.20639601 L8.25516645,1.80874217 C7.88628457,1.59752912 7.45749315,1.4765625 7,1.4765625 C5.61928813,1.4765625 4.5,2.57836175 4.5,3.9375 C4.5,4.40169797 4.63056329,4.83587772 4.8575126,5.20639601 Z M9.45271788,1.47967883 C10.0991008,2.10478907 10.5,2.97505854 10.5,3.9375 C10.5,4.89994146 10.0991008,5.77021093 9.45271788,6.39532117 C10.5829611,5.92238539 11.6643841,5.10761478 12.7030835,3.9375 C11.6643841,2.76738522 10.5829611,1.95261461 9.45271788,1.47967883 Z M4.54728212,6.39532117 C3.90089924,5.77021093 3.5,4.89994146 3.5,3.9375 C3.5,2.97505854 3.90089924,2.10478907 4.54728212,1.47967883 C3.41703892,1.95261461 2.3356159,2.76738522 1.29691652,3.9375 C2.3356159,5.10761478 3.41703892,5.92238539 4.54728212,6.39532117 Z M7,7.875 C4.42267117,7.875 2.08933783,6.5625 0,3.9375 C2.08933783,1.3125 4.42267117,0 7,0 C9.57732883,0 11.9106622,1.3125 14,3.9375 C11.9106622,6.5625 9.57732883,7.875 7,7.875 Z" id="icon-blind-eye-white"></path>
            </g>
        </g>
    </g>
</svg>