<?xml version="1.0" encoding="UTF-8"?>
<svg width="16px" height="9px" viewBox="0 0 16 9" version="1.1" xmlns="http://www.w3.org/2000/svg" xmlns:xlink="http://www.w3.org/1999/xlink">
    <!-- Generator: Sketch 48.2 (47327) - http://www.bohemiancoding.com/sketch -->
    <title>blind-reviews_icon-white</title>
    <desc>Created with Sketch.</desc>
    <defs></defs>
    <g id="Symbols" stroke="none" stroke-width="1" fill="none" fill-rule="evenodd">
        <g id="blind-reviews_icon-white" fill="#FFFFFF">
            <path d="M6.47744551,6.88031964 C6.91821083,7.15408488 7.44031185,7.3125 8,7.3125 C9.57795643,7.3125 10.8571429,6.05330086 10.8571429,4.5 C10.8571429,3.9331984 10.6868153,3.40555732 10.3937965,2.96396865 L6.47744551,6.88031964 Z M5.55144298,5.95016687 L9.43447594,2.06713391 C9.01289665,1.82574756 8.52284931,1.6875 8,1.6875 C6.42204357,1.6875 5.14285714,2.94669914 5.14285714,4.5 C5.14285714,5.03051196 5.29207233,5.5267174 5.55144298,5.95016687 Z M10.8031062,1.69106152 C11.5418294,2.40547323 12,3.40006691 12,4.5 C12,5.59993309 11.5418294,6.59452677 10.8031062,7.30893848 C12.0948127,6.76844045 13.3307247,5.83727403 14.5178097,4.5 C13.3307247,3.16272597 12.0948127,2.23155955 10.8031062,1.69106152 Z M5.19689385,7.30893848 C4.45817056,6.59452677 4,5.59993309 4,4.5 C4,3.40006691 4.45817056,2.40547323 5.19689385,1.69106152 C3.90518734,2.23155955 2.66927531,3.16272597 1.48219031,4.5 C2.66927531,5.83727403 3.90518734,6.76844045 5.19689385,7.30893848 Z M8,9 C5.05448133,9 2.38781467,7.5 0,4.5 C2.38781467,1.5 5.05448133,0 8,0 C10.9455187,0 13.6121853,1.5 16,4.5 C13.6121853,7.5 10.9455187,9 8,9 Z" id="icon-blind-eye-white"></path>
        </g>
    </g>
</svg>